<svg width="59" height="46" viewBox="0 0 59 46" fill="none" xmlns="http://www.w3.org/2000/svg">
<rect width="59" height="46" fill="#009CC2"/>
<path fill-rule="evenodd" clip-rule="evenodd" d="M26.6468 17.1722C26.3632 17.1722 26.1337 16.9334 26.1337 16.6548C26.1337 16.3763 26.3632 16.1375 26.6468 16.1375C26.9438 16.1375 27.1733 16.3763 27.1733 16.6548C27.1733 16.9334 26.9438 17.1722 26.6468 17.1722ZM32.3441 17.1722C32.0471 17.1722 31.8176 16.9334 31.8176 16.6548C31.8176 16.3763 32.0471 16.1375 32.3441 16.1375C32.6276 16.1375 32.8571 16.3763 32.8571 16.6548C32.8571 16.9334 32.6276 17.1722 32.3441 17.1722ZM21.3815 19.6129C20.6119 19.6129 19.9909 20.2232 19.9909 20.9659V26.6698C19.9909 27.426 20.6119 28.0362 21.3815 28.0362C22.151 28.0362 22.7585 27.426 22.7585 26.6698V20.9659C22.7585 20.2232 22.1375 19.6129 21.3815 19.6129ZM35.6922 19.8649H23.2986V28.6995C23.2986 29.5086 23.9601 30.1586 24.7837 30.1586H25.7827L25.7962 33.1698C25.7962 33.9259 26.4173 34.5362 27.1733 34.5362C27.9428 34.5362 28.5639 33.9259 28.5639 33.1698V30.1586H30.427V33.1698C30.427 33.9259 31.048 34.5362 31.8176 34.5362C32.5871 34.5362 33.2081 33.9259 33.2081 33.1698V30.1586H34.2207C35.0307 30.1586 35.6922 29.5086 35.6922 28.6995V19.8649ZM32.5601 14.4926L33.5187 12.7549C33.5726 12.6621 33.5457 12.5427 33.4512 12.4897C33.3566 12.4497 33.2351 12.4763 33.1812 12.5692L32.209 14.3202C31.3855 13.9619 30.4675 13.7631 29.4954 13.7631C28.5234 13.7631 27.6053 13.9619 26.7818 14.3202L25.8097 12.5692C25.7557 12.4763 25.6342 12.4497 25.5397 12.4897C25.4452 12.5427 25.4182 12.6621 25.4722 12.7549L26.4307 14.4926C24.5272 15.4478 23.2446 17.2783 23.2446 19.3873H35.7328C35.7328 17.2783 34.4502 15.4478 32.5601 14.4926ZM39 20.9659C39 20.2098 38.3789 19.6129 37.6094 19.6129C36.8534 19.6129 36.2323 20.2098 36.2323 20.9659V26.6698C36.2323 27.426 36.8534 28.0362 37.6094 28.0362C38.3789 28.0362 39 27.426 39 26.6698V20.9659Z" fill="white"/>
</svg>
