<svg width="59" height="46" viewBox="0 0 59 46" fill="none" xmlns="http://www.w3.org/2000/svg">
<rect width="59" height="46" fill="#009CC2"/>
<path fill-rule="evenodd" clip-rule="evenodd" d="M37.4817 27.0825C36.8054 26.8852 36.1978 26.4244 35.6704 25.7002C35.1431 24.9762 34.8794 24.1535 34.8794 23.2539C34.8794 22.4203 35.1316 21.6632 35.6246 20.983C35.8997 20.5992 36.3354 20.1713 36.9315 19.6886C36.5417 19.2278 36.1404 18.8549 35.7392 18.5916C35.0284 18.1198 34.2145 17.8786 33.2973 17.8786C32.7356 17.8786 32.0707 18.0101 31.3141 18.2515C30.5575 18.5038 30.0071 18.6244 29.6747 18.6244C29.411 18.6244 28.8837 18.5147 28.0927 18.2953C27.2901 18.076 26.6253 17.9663 26.0635 17.9663C24.7451 17.9663 23.6675 18.4929 22.8077 19.5459C21.9479 20.6101 21.5122 21.9704 21.5122 23.6489C21.5122 25.4479 22.0854 27.2801 23.1975 29.1668C24.3324 31.0538 25.4673 32.0082 26.6482 32.0082C27.0265 32.0082 27.5309 31.8876 28.1614 31.6353C28.7805 31.3939 29.3308 31.2731 29.7893 31.2731C30.2593 31.2731 30.844 31.3828 31.5204 31.6242C32.2082 31.8547 32.7356 31.9753 33.1254 31.9753C34.0998 31.9753 35.0858 31.2622 36.0717 29.8252C36.7366 28.8707 37.1952 27.9492 37.4817 27.0825ZM33.1712 14.2144C33.1712 14.1377 33.1598 14.0718 33.1598 13.995C33.1483 13.9292 33.1254 13.8524 33.1024 13.7537C31.7726 14.0498 30.8096 14.5875 30.2364 15.3774C29.6632 16.1672 29.3652 17.1106 29.3422 18.1966C29.881 18.1527 30.2708 18.0869 30.5345 18.0101C30.9472 17.8786 31.3599 17.6152 31.7726 17.2203C32.2541 16.7595 32.6095 16.2549 32.8388 15.7064C33.0566 15.1689 33.1712 14.6643 33.1712 14.2144Z" fill="white"/>
</svg>
